<?xml version="1.0" encoding="UTF-8" standalone="no"?>
<svg
   xmlns:dc="http://purl.org/dc/elements/1.1/"
   xmlns:cc="http://creativecommons.org/ns#"
   xmlns:rdf="http://www.w3.org/1999/02/22-rdf-syntax-ns#"
   xmlns:svg="http://www.w3.org/2000/svg"
   xmlns="http://www.w3.org/2000/svg"
   xmlns:sodipodi="http://sodipodi.sourceforge.net/DTD/sodipodi-0.dtd"
   xmlns:inkscape="http://www.inkscape.org/namespaces/inkscape"
   width="555"
   height="555"
   viewBox="0 0 555 555"
   version="1.1"
   id="svg2"
   inkscape:version="0.91 r13725"
   sodipodi:docname="elementai.svg">
  <metadata
     id="metadata34">
    <rdf:RDF>
      <cc:Work
         rdf:about="">
        <dc:format>image/svg+xml</dc:format>
        <dc:type
           rdf:resource="http://purl.org/dc/dcmitype/StillImage" />
        <dc:title>elementai-logo-black</dc:title>
      </cc:Work>
    </rdf:RDF>
  </metadata>
  <sodipodi:namedview
     pagecolor="#ffffff"
     bordercolor="#666666"
     borderopacity="1"
     objecttolerance="10"
     gridtolerance="10"
     guidetolerance="10"
     inkscape:pageopacity="0"
     inkscape:pageshadow="2"
     inkscape:window-width="1174"
     inkscape:window-height="743"
     id="namedview32"
     showgrid="false"
     inkscape:zoom="0.55855856"
     inkscape:cx="325.83871"
     inkscape:cy="178.22581"
     inkscape:window-x="26"
     inkscape:window-y="0"
     inkscape:window-maximized="0"
     inkscape:current-layer="svg2" />
  <!-- Generator: Sketch 43.2 (39069) - http://www.bohemiancoding.com/sketch -->
  <title
     id="title4">elementai-logo-black</title>
  <desc
     id="desc6">Created with Sketch.</desc>
  <defs
     id="defs8" />
  <g
     id="Page-1"
     style="fill:none;fill-rule:evenodd;stroke:none;stroke-width:1"
     transform="translate(0,225)">
    <g
       id="elementai-logo-black"
       style="fill:#414042;fill-rule:nonzero">
      <g
         id="Group"
         transform="translate(506,0)">
        <path
           d="M 25,30.1 22.3,23.4 9.7,23.4 7,30.1 0.3,30.1 13,0 l 6.1,0 12.8,30.1 -6.9,0 z m -9.1,-22.2 -4,9.7 7.9,0 -3.9,-9.7 z"
           id="Shape"
           inkscape:connector-curvature="0" />
        <polygon
           id="polygon14"
           points="49,0.2 49,30.1 42.4,30.1 42.4,0.2 " />
      </g>
      <g
         id="g16"
         transform="translate(0,19)">
        <polygon
           id="polygon18"
           points="38.6,41 38.6,50.8 0.6,50.8 0.6,0.9 38.2,0.9 38.2,10.7 11.5,10.7 11.5,20.8 35,20.8 35,30.6 11.5,30.6 11.5,41 " />
        <polygon
           id="polygon20"
           points="107.2,40.8 107.2,50.8 71.3,50.8 71.3,0.9 82.3,0.9 82.3,40.8 " />
        <polygon
           id="polygon22"
           points="177.8,41 177.8,50.8 139.8,50.8 139.8,0.9 177.4,0.9 177.4,10.7 150.7,10.7 150.7,20.8 174.2,20.8 174.2,30.6 150.7,30.6 150.7,41 " />
        <polygon
           id="polygon24"
           points="222.2,0.9 237,22 251.7,0.9 263.5,0.9 263.5,50.8 252.7,50.8 252.7,50.8 252.7,18.2 237,39.5 236.7,39.5 221.2,18.4 221.2,50.8 210.4,50.8 210.4,0.9 " />
        <polygon
           id="polygon26"
           points="334.3,41 334.3,50.8 296.3,50.8 296.3,0.9 333.9,0.9 333.9,10.7 307.2,10.7 307.2,20.8 330.7,20.8 330.7,30.6 307.2,30.6 307.2,41 " />
        <polygon
           id="polygon28"
           points="377.8,50.8 367,50.8 367,0.9 377.1,0.9 400.5,31.6 400.5,0.9 411.3,0.9 411.3,50.8 402,50.8 377.8,19.1 " />
        <polygon
           id="polygon30"
           points="485.3,0.9 485.3,11 470.1,11 470.1,50.8 459.1,50.8 459.1,11 444,11 444,0.9 " />
      </g>
    </g>
  </g>
</svg>
